<svg id="Capa_1" data-name="Capa 1" xmlns="http://www.w3.org/2000/svg" viewBox="0 0 376.73 548.76"><defs><style>.cls-1{fill:#52c1b1;}</style></defs><path class="cls-1" d="M193.9,552.8A51.89,51.89,0,0,1,157,537.51L20.8,401.34a52.28,52.28,0,0,1,0-73.85L157,191.32a52.28,52.28,0,0,1,73.85,0L367,327.49a52.28,52.28,0,0,1,0,73.85L230.82,537.51A51.88,51.88,0,0,1,193.9,552.8Zm0-361.76a37.1,37.1,0,0,0-26.32,10.88L31.41,338.1a37.22,37.22,0,0,0,0,52.63L167.58,526.9a37.22,37.22,0,0,0,52.63,0L356.38,390.73a37.19,37.19,0,0,0,0-52.63L220.21,201.92A37.1,37.1,0,0,0,193.9,191Z" transform="translate(-5.53 -4.05)"/><path class="cls-1" d="M193.9,509.8A51.89,51.89,0,0,1,157,494.51L20.8,358.34a52.28,52.28,0,0,1,0-73.85L157,148.32a52.28,52.28,0,0,1,73.85,0L367,284.49a52.28,52.28,0,0,1,0,73.85L230.82,494.51A51.88,51.88,0,0,1,193.9,509.8Zm0-361.76a37.1,37.1,0,0,0-26.32,10.88L31.41,295.1a37.22,37.22,0,0,0,0,52.63L167.58,483.9a37.22,37.22,0,0,0,52.63,0L356.38,347.73a37.19,37.19,0,0,0,0-52.63L220.21,158.92A37.1,37.1,0,0,0,193.9,148Z" transform="translate(-5.53 -4.05)"/><path class="cls-1" d="M193.9,466.78A52.06,52.06,0,0,1,157,451.51L20.8,315.34a52.28,52.28,0,0,1,0-73.85L157,105.32a52.28,52.28,0,0,1,73.85,0L367,241.49a52.28,52.28,0,0,1,0,73.85L230.82,451.51A52.05,52.05,0,0,1,193.9,466.78Zm0-361.74a37.1,37.1,0,0,0-26.32,10.88L31.41,252.1a37.26,37.26,0,0,0,0,52.63L167.58,440.9a37.26,37.26,0,0,0,52.63,0L356.38,304.73a37.24,37.24,0,0,0,0-52.63L220.21,115.92A37.1,37.1,0,0,0,193.9,105Z" transform="translate(-5.53 -4.05)"/><path class="cls-1" d="M193.9,423.78A52.06,52.06,0,0,1,157,408.51L20.8,272.34a52.28,52.28,0,0,1,0-73.85L157,62.32a52.28,52.28,0,0,1,73.85,0L367,198.49a52.28,52.28,0,0,1,0,73.85L230.82,408.51A52.05,52.05,0,0,1,193.9,423.78ZM193.9,62a37.1,37.1,0,0,0-26.32,10.88L31.41,209.1a37.26,37.26,0,0,0,0,52.63L167.58,397.9a37.26,37.26,0,0,0,52.63,0L356.38,261.73a37.24,37.24,0,0,0,0-52.63L220.21,72.92A37.1,37.1,0,0,0,193.9,62Z" transform="translate(-5.53 -4.05)"/><path class="cls-1" d="M193.9,380.78A52.06,52.06,0,0,1,157,365.51L20.8,229.34a52.28,52.28,0,0,1,0-73.85L157,19.32a52.28,52.28,0,0,1,73.85,0L367,155.49a52.28,52.28,0,0,1,0,73.85L230.82,365.51A52.05,52.05,0,0,1,193.9,380.78ZM193.9,19a37.1,37.1,0,0,0-26.32,10.88L31.41,166.1a37.26,37.26,0,0,0,0,52.63L167.58,354.9a37.26,37.26,0,0,0,52.63,0L356.38,218.73a37.24,37.24,0,0,0,0-52.63L220.21,29.92A37.1,37.1,0,0,0,193.9,19Z" transform="translate(-5.53 -4.05)"/></svg>