<svg id="Capa_1" data-name="Capa 1" xmlns="http://www.w3.org/2000/svg" viewBox="0 0 1050.51 776.98"><defs><style>.cls-1{fill:#52c1b1;}</style></defs><path class="cls-1" d="M524.9,552.8A51.89,51.89,0,0,1,488,537.51L351.8,401.34a52.28,52.28,0,0,1,0-73.85L488,191.32a52.28,52.28,0,0,1,73.85,0L698,327.49a52.28,52.28,0,0,1,0,73.85L561.82,537.51A51.88,51.88,0,0,1,524.9,552.8Zm0-361.76a37.1,37.1,0,0,0-26.32,10.88L362.41,338.1a37.22,37.22,0,0,0,0,52.63L498.58,526.9a37.22,37.22,0,0,0,52.63,0L687.38,390.73a37.19,37.19,0,0,0,0-52.63L551.21,201.92A37.1,37.1,0,0,0,524.9,191Z" transform="translate(0.36 -4.05)"/><path class="cls-1" d="M524.9,509.8A51.89,51.89,0,0,1,488,494.51L351.8,358.34a52.28,52.28,0,0,1,0-73.85L488,148.32a52.28,52.28,0,0,1,73.85,0L698,284.49a52.28,52.28,0,0,1,0,73.85L561.82,494.51A51.88,51.88,0,0,1,524.9,509.8Zm0-361.76a37.1,37.1,0,0,0-26.32,10.88L362.41,295.1a37.22,37.22,0,0,0,0,52.63L498.58,483.9a37.22,37.22,0,0,0,52.63,0L687.38,347.73a37.19,37.19,0,0,0,0-52.63L551.21,158.92A37.1,37.1,0,0,0,524.9,148Z" transform="translate(0.36 -4.05)"/><path class="cls-1" d="M524.9,466.78A52.06,52.06,0,0,1,488,451.51L351.8,315.34a52.28,52.28,0,0,1,0-73.85L488,105.32a52.28,52.28,0,0,1,73.85,0L698,241.49a52.28,52.28,0,0,1,0,73.85L561.82,451.51A52.05,52.05,0,0,1,524.9,466.78Zm0-361.74a37.1,37.1,0,0,0-26.32,10.88L362.41,252.1a37.26,37.26,0,0,0,0,52.63L498.58,440.9a37.26,37.26,0,0,0,52.63,0L687.38,304.73a37.24,37.24,0,0,0,0-52.63L551.21,115.92A37.1,37.1,0,0,0,524.9,105Z" transform="translate(0.36 -4.05)"/><path class="cls-1" d="M524.9,423.78A52.06,52.06,0,0,1,488,408.51L351.8,272.34a52.28,52.28,0,0,1,0-73.85L488,62.32a52.28,52.28,0,0,1,73.85,0L698,198.49a52.28,52.28,0,0,1,0,73.85L561.82,408.51A52.05,52.05,0,0,1,524.9,423.78ZM524.9,62a37.1,37.1,0,0,0-26.32,10.88L362.41,209.1a37.26,37.26,0,0,0,0,52.63L498.58,397.9a37.26,37.26,0,0,0,52.63,0L687.38,261.73a37.24,37.24,0,0,0,0-52.63L551.21,72.92A37.1,37.1,0,0,0,524.9,62Z" transform="translate(0.36 -4.05)"/><path class="cls-1" d="M524.9,380.78A52.06,52.06,0,0,1,488,365.51L351.8,229.34a52.28,52.28,0,0,1,0-73.85L488,19.32a52.28,52.28,0,0,1,73.85,0L698,155.49a52.28,52.28,0,0,1,0,73.85L561.82,365.51A52.05,52.05,0,0,1,524.9,380.78ZM524.9,19a37.1,37.1,0,0,0-26.32,10.88L362.41,166.1a37.26,37.26,0,0,0,0,52.63L498.58,354.9a37.26,37.26,0,0,0,52.63,0L687.38,218.73a37.24,37.24,0,0,0,0-52.63L551.21,29.92A37.1,37.1,0,0,0,524.9,19Z" transform="translate(0.36 -4.05)"/><path class="cls-1" d="M175.18,734.87H135.85V673.6c0-5.39-1.07-9.28-3.21-11.7a10,10,0,0,0-7.76-3.62q-4.77,0-10,4.35a25.39,25.39,0,0,0-7.77,11.17v61.07H67.74V673.6c0-5.39-1.07-9.28-3.2-11.7a10,10,0,0,0-7.77-3.62q-4.76,0-10,4.35A25.37,25.37,0,0,0,39,673.8v61.07H-.36V626H35v16.14A36.94,36.94,0,0,1,51,628.57q10.14-4.65,24-4.65a38.81,38.81,0,0,1,11.59,1.55,28.61,28.61,0,0,1,8.59,4.24,24,24,0,0,1,5.8,6,30.05,30.05,0,0,1,3.41,7,39.25,39.25,0,0,1,15.84-13.87,50.89,50.89,0,0,1,22.87-5q10.77,0,17.08,4a27.76,27.76,0,0,1,9.62,10,38.21,38.21,0,0,1,4.35,12.84,83.51,83.51,0,0,1,1,12.42Z" transform="translate(0.36 -4.05)"/><path class="cls-1" d="M247.83,736.94a68.53,68.53,0,0,1-25.46-4.45,53.84,53.84,0,0,1-18.73-12.11,52.07,52.07,0,0,1-11.49-17.6,56.1,56.1,0,0,1-3.94-20.9A65.14,65.14,0,0,1,192,659.52a51.73,51.73,0,0,1,11.39-18.42,55.07,55.07,0,0,1,18.63-12.53q11.07-4.65,25.77-4.65a66.37,66.37,0,0,1,25.67,4.65A55.75,55.75,0,0,1,292.23,641a51.39,51.39,0,0,1,11.39,18,60.8,60.8,0,0,1,3.83,21.43c0,2.07-.11,4.17-.31,6.31s-.45,4-.73,5.69H230q.61,8.7,6.42,12.53a22.45,22.45,0,0,0,12.62,3.83,26.33,26.33,0,0,0,12.11-2.9,14.54,14.54,0,0,0,7.56-8.07l33.32,9.52q-6.62,13-20.38,21.32T247.83,736.94Zm17.39-68.1q-1-7.87-5.8-12.42a18.63,18.63,0,0,0-24.42,0q-4.77,4.55-5.8,12.42Z" transform="translate(0.36 -4.05)"/><path class="cls-1" d="M429.78,734.87H390.45V673.6c0-5.39-1.21-9.28-3.62-11.7a11.53,11.53,0,0,0-8.38-3.62c-3.32,0-6.83,1.45-10.56,4.35a25.78,25.78,0,0,0-8.28,11.17v61.07H320.28V626h35.4v16.14a36.68,36.68,0,0,1,16.25-13.56q10.44-4.65,24.73-4.65,11.18,0,17.7,4a28.24,28.24,0,0,1,9.94,10,37.11,37.11,0,0,1,4.45,12.84,83.41,83.41,0,0,1,1,12.42Z" transform="translate(0.36 -4.05)"/><path class="cls-1" d="M525.21,728.87a122,122,0,0,1-17.7,5.9A75.8,75.8,0,0,1,489,737.15a47.48,47.48,0,0,1-12.63-1.66,27.42,27.42,0,0,1-10.45-5.38,25.77,25.77,0,0,1-7-9.73,37.82,37.82,0,0,1-2.58-14.91V655.59H442.82V626h13.46V591.83h39.33V626h21.32v29.6H495.61v36c0,3.59.75,6.1,2.27,7.55a8.62,8.62,0,0,0,6.21,2.17,27.82,27.82,0,0,0,6.63-.93,46.09,46.09,0,0,0,7.45-2.58Z" transform="translate(0.36 -4.05)"/><path class="cls-1" d="M588.75,736.94q-14.7,0-25.77-4.66a55.71,55.71,0,0,1-18.63-12.42,51.13,51.13,0,0,1-11.38-18A61.84,61.84,0,0,1,533,659a51.22,51.22,0,0,1,11.38-18A56,56,0,0,1,563,628.57q11.07-4.65,25.77-4.65a66.37,66.37,0,0,1,25.67,4.65A55.79,55.79,0,0,1,633.16,641a51.36,51.36,0,0,1,11.38,18,61.84,61.84,0,0,1,0,42.85,51.27,51.27,0,0,1-11.38,18,55.5,55.5,0,0,1-18.74,12.42Q603.25,736.95,588.75,736.94ZM569.5,680.43q0,11,5.39,17.18a18.58,18.58,0,0,0,27.73,0Q608,691.4,608,680.43t-5.38-17.18a18.58,18.58,0,0,0-27.73,0Q569.49,669.46,569.5,680.43Z" transform="translate(0.36 -4.05)"/><path class="cls-1" d="M736.14,659.52a80.58,80.58,0,0,0-20.7,2.48q-9.32,2.49-13.87,8.28v64.59H662.24V626h36v20.7q5.79-11,14.38-16.87a32.07,32.07,0,0,1,18.53-5.9,36.45,36.45,0,0,1,5,.2Z" transform="translate(0.36 -4.05)"/><path class="cls-1" d="M748.35,616.88V583.76h39.33v33.12Zm0,118V626h39.33V734.87Z" transform="translate(0.36 -4.05)"/><path class="cls-1" d="M917.05,734.87H877.72V673.6c0-5.39-1.21-9.28-3.62-11.7a11.53,11.53,0,0,0-8.38-3.62q-5,0-10.56,4.35a25.78,25.78,0,0,0-8.28,11.17v61.07H807.55V626H843v16.14a36.68,36.68,0,0,1,16.25-13.56q10.44-4.65,24.73-4.65,11.18,0,17.7,4a28.24,28.24,0,0,1,9.94,10A37.31,37.31,0,0,1,916,650.83a83.41,83.41,0,0,1,1,12.42Z" transform="translate(0.36 -4.05)"/><path class="cls-1" d="M977.91,734.87a44,44,0,0,1-19.36-4.24,45.06,45.06,0,0,1-15-11.6,53.31,53.31,0,0,1-9.63-17.28,69.79,69.79,0,0,1,.31-44.09,52.94,52.94,0,0,1,10.45-17.8,48.25,48.25,0,0,1,36.54-15.94,44.09,44.09,0,0,1,20.7,4.65A34.72,34.72,0,0,1,1016,642.13V626h34.15v98.94a55,55,0,0,1-4.76,23.19,49.61,49.61,0,0,1-13.46,17.59A63.18,63.18,0,0,1,1011,777a86.12,86.12,0,0,1-27.12,4q-17.38,0-30.22-5.38a68.91,68.91,0,0,1-22.77-15.53l20.7-21.53A53.47,53.47,0,0,0,966,748a42.65,42.65,0,0,0,17.91,3.83,35.62,35.62,0,0,0,10.25-1.45,23.21,23.21,0,0,0,8.59-4.65,22.24,22.24,0,0,0,5.9-8.39,32,32,0,0,0,2.17-12.42v-7a29.41,29.41,0,0,1-13.56,12.84A44.87,44.87,0,0,1,977.91,734.87Zm14.07-31a19.22,19.22,0,0,0,10.46-2.8,30.11,30.11,0,0,0,8.38-8.38V673.18a26.58,26.58,0,0,0-8.59-11.8,19.39,19.39,0,0,0-11.9-4.34,16,16,0,0,0-7.77,2,21.82,21.82,0,0,0-6.31,5.18,22.83,22.83,0,0,0-4.14,7.66,30.1,30.1,0,0,0-1.45,9.42q0,10.14,6,16.35A20.36,20.36,0,0,0,992,703.82Z" transform="translate(0.36 -4.05)"/></svg>